<?xml version="1.0" encoding="UTF-8"?><svg id="Layer_2" xmlns="http://www.w3.org/2000/svg" viewBox="0 0 908.57 257.49"><g id="Layer_1-2"><polygon points="465.09 27.33 465.09 1.87 355.77 1.87 355.77 144.93 465.09 144.93 465.09 119.48 380.92 119.48 380.92 86.21 445.1 86.21 445.1 60.75 380.92 60.75 380.92 27.33 465.09 27.33" fill="#231F20" stroke-width="0"/><rect x="149.31" y="1.87" width="24.83" height="142.9" fill="#231F20" stroke-width="0"/><polygon points="329.06 1.87 200.84 1.87 200.84 27.33 252.38 27.33 252.38 144.93 252.38 144.93 277.53 144.93 277.53 144.93 277.53 27.33 329.06 27.33 329.06 1.87" fill="#231F20" stroke-width="0"/><path d="m95.42,35.61l14.52-20.77S90.89,0,61.53,0C26.71,0,3.44,18.9,3.44,42.79c0,52.48,84.96,36.7,84.96,62.63,0,9.84-8.75,16.55-29.36,16.55-25.61,0-45.14-17.96-45.14-17.96L0,124.32s20.77,22.8,59.82,22.8c34.36,0,56.07-19.68,56.07-42.64,0-51.07-84.96-35.92-84.96-62.94,0-9.84,10.93-16.55,28.27-16.55,19.99.16,36.23,10.62,36.23,10.62h-.01Z" fill="#231F20" stroke-width="0"/><polygon points="908.57 1.87 780.35 1.87 780.35 27.33 831.89 27.33 831.89 144.93 831.89 144.93 857.04 144.93 857.04 144.93 857.04 27.33 908.57 27.33 908.57 1.87" fill="#231F20" stroke-width="0"/><polygon points="753.65 27.33 753.65 1.87 644.32 1.87 644.32 144.93 753.65 144.93 753.65 119.48 669.47 119.48 669.47 86.21 733.66 86.21 733.66 60.75 669.47 60.75 669.47 27.33 753.65 27.33" fill="#231F20" stroke-width="0"/><path d="m604.5,1.87h-95.89v25.46h70.59v62c0,19.99-8.43,32.64-34.52,32.64-21.24,0-39.51-17.96-39.51-17.96l-13.9,20.3s22.33,22.8,55.44,22.8c36.39,0,57.47-20.46,57.47-54.35l.31-90.89h.01Z" fill="#231F20" stroke-width="0"/><path d="m427.48,256.24v-69.29h32.48c6.27,0,11.25,1.63,14.93,4.88,3.68,3.26,5.52,7.51,5.52,12.78,0,4.16-1.24,7.67-3.72,10.54s-5.5,4.66-9.08,5.35c3.86.55,7.2,2.49,10.01,5.82,2.81,3.32,4.21,7.06,4.21,11.22,0,5.61-1.88,10.13-5.63,13.56s-8.91,5.14-15.47,5.14h-33.25Zm9.08-39.27h21.87c4.01,0,7.11-1.04,9.3-3.12s3.28-4.74,3.28-8-1.11-5.94-3.34-8.05-5.3-3.17-9.24-3.17h-21.87v22.34Zm0,31.58h22.31c4.23,0,7.55-1.07,9.95-3.22s3.61-5.06,3.61-8.73c0-3.39-1.18-6.23-3.55-8.52-2.37-2.29-5.7-3.43-10.01-3.43h-22.31v23.89h0Z" fill="#231F20" stroke-width="0"/><path d="m501.73,186.95h9.08v42.18c0,6.44,1.79,11.5,5.36,15.17s8.68,5.51,15.31,5.51,11.74-1.84,15.31-5.51,5.36-8.73,5.36-15.17v-42.18h9.08v42.28c0,8.8-2.53,15.7-7.6,20.73-5.07,5.02-12.45,7.53-22.14,7.53s-17.08-2.51-22.15-7.53c-5.07-5.02-7.6-11.9-7.6-20.62v-42.39h0Z" fill="#231F20" stroke-width="0"/><path d="m583.75,256.24v-69.29h9.08v69.29h-9.08Z" fill="#231F20" stroke-width="0"/><path d="m615.36,256.24v-69.29h9.08v61.6h33.9v7.69h-42.98Z" fill="#231F20" stroke-width="0"/><path d="m676.6,256.24v-69.29h24.93c11.15,0,20.18,3.29,27.07,9.87s10.33,14.86,10.33,24.83-3.44,18.32-10.33,24.83-15.91,9.77-27.07,9.77h-24.93Zm9.08-7.69h15.86c8.6,0,15.42-2.56,20.45-7.69s7.55-11.53,7.55-19.22-2.48-14.2-7.44-19.32c-4.96-5.13-11.81-7.69-20.56-7.69h-15.86v53.92h0Z" fill="#231F20" stroke-width="0"/><path d="m758.61,256.24v-69.29h47.79v7.69h-38.71v22.34h37.95v7.69h-37.95v23.89h38.71v7.69h-47.79Z" fill="#231F20" stroke-width="0"/><path d="m868.52,256.24l-18.59-27.53h-14.54v27.53h-9.08v-69.29h29.31c6.78,0,12.28,1.9,16.51,5.71,4.23,3.81,6.34,8.86,6.34,15.17,0,5.96-1.82,10.7-5.47,14.23-3.65,3.53-8.13,5.51-13.45,5.92l19.68,28.26h-10.72,0Zm-3.5-57.92c-2.7-2.46-6.2-3.69-10.5-3.69h-19.14v26.49h19.14c4.3,0,7.8-1.25,10.5-3.74s4.05-5.68,4.05-9.56-1.35-7.05-4.05-9.51h0Z" fill="#231F20" stroke-width="0"/></g></svg>